<svg width="1850" height="1979" viewBox="0 0 1850 1979" fill="none" xmlns="http://www.w3.org/2000/svg">
<path d="M1614.42 11.0597C1748.2 -38.114 1881.49 84.6535 1843.39 222.007L1399.19 1823.74C1373.77 1915.42 1290.33 1978.85 1195.23 1978.85H310.58C252.315 1978.85 196.717 1954.85 156.707 1912.51L57.8477 1807.83C20.7547 1768.57 0.0830163 1716.56 0.0830078 1662.47H0V752.586C0 663.906 55.3476 584.562 138.619 553.974L1614.42 11.0597ZM992.84 1375.26C826.63 1375.26 706.349 1447.77 706.349 1588.13C706.349 1728.48 836.966 1799.83 992.84 1799.83C1151.63 1799.83 1279.33 1729.15 1279.33 1589.88C1279.33 1450.61 1159.05 1375.26 992.84 1375.26ZM186.631 1665.22L310.913 1789.49H341.004V1646.8H360.593L517.633 1789.49H674.09V1758.82L524.468 1634.72C594.652 1615.72 647.583 1570.88 647.583 1512.78C647.583 1436.27 585.484 1386.27 466.953 1386.27H186.214L186.631 1665.22ZM992.84 1485.7C1082.03 1485.7 1130.37 1530.54 1130.38 1589.8C1130.38 1649.05 1082.53 1691.06 992.84 1691.06C903.15 1691.06 855.388 1647.3 855.388 1589.8C855.388 1528.29 903.067 1485.7 992.84 1485.7ZM439.946 1479.95C476.789 1479.95 489.959 1499.53 489.959 1513.28C489.959 1527.04 471.538 1544.96 435.945 1545.46V1545.54H341.004V1479.95H439.946ZM185.714 1335.09H344.005V1192.07H631.662V1086.14H344.005V1024.96H680.509V922.614H185.714V1335.09ZM662.921 1335.01H816.544L847.719 1283.83H1060.77L1087.86 1335.01H1267.99L1036.68 921.281H904.816L662.921 1335.01ZM1003.09 1172.65H907.15L954.829 1084.39L1003.09 1172.65Z" fill="#EAEBDB"/>
</svg>
