<svg width="1876" height="2007" viewBox="0 0 1876 2007" fill="none" xmlns="http://www.w3.org/2000/svg">
<path d="M1636.91 11.2137C1772.56 -38.645 1907.71 85.8331 1869.08 225.099L1418.69 1849.14C1392.92 1942.1 1308.31 2006.41 1211.88 2006.41H314.908C255.831 2006.41 199.459 1982.07 158.892 1939.14L58.6543 1833C21.0447 1793.2 0.0850025 1740.47 0.0849609 1685.62H0V763.066C0.000184441 673.152 56.1192 592.702 140.551 561.688L1636.91 11.2137ZM1308.71 485.387C1294.6 485.387 1280.73 488.031 1267.67 492.928L1247.64 500.436L292.85 851.736L292.84 851.74L292.829 851.744C237.6 872.089 200.607 924.968 200.607 983.931V1585.13C200.608 1621.1 214.205 1655.6 239.103 1681.94L239.104 1681.94L304.389 1751.05V1751.05C331.042 1779.35 368.448 1795.14 406.802 1795.14H991.328C1054.61 1795.14 1110.19 1752.79 1127.12 1691.85L1127.12 1691.84L1127.13 1691.83L1420.67 633.337L1420.7 633.21C1433.87 585.297 1414.43 548.679 1400.95 531.391L1400.95 531.392C1379.58 503.613 1346.36 485.949 1310.44 485.4L1308.71 485.387ZM1308.71 543.675C1326.46 543.675 1343.77 552.473 1354.99 567.233C1361.52 575.607 1371.17 593.491 1364.5 617.761L1070.96 1676.25L1070.72 1677.09C1060.51 1712.4 1028.09 1736.85 991.328 1736.85H406.802L405.744 1736.85C383.547 1736.56 361.99 1727.23 346.76 1711.02L281.466 1641.91C266.846 1626.44 258.896 1606.28 258.896 1585.13V983.931C258.896 949.712 280.276 918.846 312.221 906.722L312.977 906.439V906.438L1288.13 547.647V547.505C1294.94 544.95 1301.9 543.675 1308.71 543.675Z" fill="#EAEBDB"/>
</svg>
