<svg width="1158" height="1080" viewBox="0 0 1158 1080" fill="none" xmlns="http://www.w3.org/2000/svg">
<path d="M621.068 886.526C564.911 886.526 535.085 913.171 535.085 951.652C535.085 987.63 564.963 1015 621.068 1015C677.174 1015 707.103 988.725 707.103 951.652C707.103 914.579 676.861 886.526 621.068 886.526Z" fill="#FCFCFC"/>
<path d="M275.259 882.928H213.366V923.965H272.756C295.073 923.6 306.545 912.806 306.545 903.837C306.545 894.869 298.254 882.98 275.259 882.98V882.928Z" fill="#FCFCFC"/>
<path d="M597.342 635.408L567.517 690.628H627.532L597.342 635.408Z" fill="#FCFCFC"/>
<path d="M1009.89 -36.0809L86.7127 303.574C34.6225 322.763 0 372.35 0 427.83V997.067C0 1030.86 12.9313 1063.39 36.1346 1088L97.9756 1153.49C123.004 1179.98 157.783 1195 194.23 1195H747.617C807.111 1195 859.306 1155.32 875.209 1097.96L1153.08 95.8917C1176.9 9.96111 1093.48 -66.8448 1009.84 -36.0809H1009.89ZM648.494 533.47L793.189 792.305H680.51L663.563 760.289H530.288L510.786 792.305H414.688L566.005 533.47H648.494ZM116.225 534.2H425.742V598.231H215.244V636.504H395.187V702.776H215.244V792.253H116.225V534.2ZM421.727 1076.53H323.856L225.62 987.265H213.367V1076.53H194.543L116.799 998.788L116.538 824.268H292.154C366.3 824.268 405.146 855.553 405.146 903.42C405.146 939.763 372.035 967.868 328.132 979.704L421.727 1057.34V1076.53ZM621.067 1083.05C523.561 1083.05 441.854 1038.42 441.854 950.609C441.854 862.801 517.096 817.437 621.067 817.437C725.039 817.437 800.281 864.574 800.281 951.704C800.281 1038.83 720.399 1083.05 621.067 1083.05Z" fill="#FCFCFC"/>
</svg>
